<?xml version="1.0"?>
<svg width="550.04004" height="651.24669" xmlns="http://www.w3.org/2000/svg" xmlns:svg="http://www.w3.org/2000/svg">
 <g class="layer">
  <title>Layer 1</title>
  <g id="svg_2">
   <polygon fill="#ffb6b6" id="svg_3" points="72.17251586914062,641.8580932617188 87.42459106445312,641.8565673828125 94.68011474609375,583.0264282226562 72.16944885253906,583.0280151367188 72.17251586914062,641.8580932617188 "/>
   <path d="m124.43,641.51l0,0c0.47,0.8 0.72,3.38 0.72,4.31l0,0c0,2.86 -2.31,5.18 -5.17,5.18l-47.24,0c-1.95,0 -3.53,-1.58 -3.53,-3.53l0,-1.97s-2.34,-5.91 2.48,-13.19c0,0 5.97,5.7 14.91,-3.23l2.63,-4.78l19.07,13.95l10.58,1.3c2.31,0.29 4.36,-0.04 5.55,1.96l0,0z" fill="#2f2e41" id="svg_4"/>
  </g>
  <g id="svg_5">
   <polygon fill="#ffb6b6" id="svg_6" points="156.17251586914062,641.8580932617188 171.42459106445312,641.8565673828125 178.68011474609375,583.0264282226562 156.16946411132812,583.0280151367188 156.17251586914062,641.8580932617188 "/>
   <path d="m208.43,641.51l0,0c0.47,0.8 0.72,3.38 0.72,4.31l0,0c0,2.86 -2.31,5.18 -5.17,5.18l-47.24,0c-1.95,0 -3.53,-1.58 -3.53,-3.53l0,-1.97s-2.34,-5.91 2.48,-13.19c0,0 5.97,5.7 14.91,-3.23l2.63,-4.78l19.07,13.95l10.58,1.3c2.31,0.29 4.36,-0.04 5.55,1.96l0,0z" fill="#2f2e41" id="svg_7"/>
  </g>
  <path d="m150.05,173.55s17.56,-8 28.78,0s21.22,80 9.22,92c-12,12 -32,-15 -32,-15l-6,-77z" fill="#ffb6b6" id="svg_8"/>
  <path d="m83.65,174.5s-17.56,-8 -28.78,0s-21.22,80 -9.22,92s32,-15 32,-15l6,-77z" fill="#ffb6b6" id="svg_9"/>
  <path d="m84.15,263s-6,27 -13,39l51,30l40,-26s-19,-31 -16,-40l-62,-3z" fill="#ffb6b6" id="svg_10"/>
  <g id="svg_11">
   <polygon fill="#ffb6b6" id="svg_12" points="431.6265869140625,638.8599243164062 412.039794921875,638.8580322265625 402.72222900390625,563.30810546875 431.63055419921875,563.3101196289062 431.6265869140625,638.8599243164062 "/>
   <path d="m364.52,638.42l0,0c-0.61,1.02 -0.93,4.34 -0.93,5.53l0,0c0,3.67 2.97,6.65 6.65,6.65l60.65,0c2.51,0 4.54,-2.03 4.54,-4.54l0,-2.52s3,-7.59 -3.18,-16.95c0,0 -7.68,7.33 -19.15,-4.14l-3.38,-6.13l-24.49,17.91l-13.58,1.67c-2.97,0.36 -5.6,-0.06 -7.13,2.52l0,0z" fill="#2f2e41" id="svg_13"/>
  </g>
  <g id="svg_14">
   <polygon fill="#ffb6b6" id="svg_15" points="492.17138671875,638.8599243164062 472.5845947265625,638.8580322265625 463.26702880859375,563.30810546875 492.17529296875,563.3101196289062 492.17138671875,638.8599243164062 "/>
   <path d="m425.06,638.42l0,0c-0.61,1.02 -0.93,4.34 -0.93,5.53l0,0c0,3.67 2.98,6.65 6.65,6.65l60.66,0c2.5,0 4.53,-2.03 4.53,-4.54l0,-2.52s3,-7.59 -3.17,-16.95c0,0 -7.68,7.33 -19.15,-4.14l-3.39,-6.13l-24.49,17.91l-13.57,1.67c-2.97,0.36 -5.61,-0.06 -7.14,2.52l0,0z" fill="#2f2e41" id="svg_16"/>
  </g>
  <g id="svg_17">
   <path d="m390.88,203.03s-2.84,18.26 0.45,30.05l-48.25,85.54l18.77,13.68l62.67,-78.85l8.69,-38.96l-42.33,-11.46z" fill="#ffb6b6" id="svg_18"/>
   <path d="m333.75,358.65c-7.28,-4.11 -7.8,-16.99 -1.15,-28.78c6.65,-11.79 17.94,-18.02 25.22,-13.91c7.28,4.11 7.8,16.99 1.15,28.78c-6.65,11.79 -17.94,18.02 -25.22,13.91z" fill="#ffb6b6" id="svg_19"/>
  </g>
  <path d="m409.7,290.07s-23.07,16.28 -15.14,40.57l-6.49,81.96l14.42,168.66l31.05,0l4.99,-121.09l20.18,-76.4l2.62,197.49l38.46,-0.72s2.17,-98.74 -0.72,-104.51c-2.88,-5.77 0,-1.14 0,-1.14l23.79,-115.64l-3.6,-79.27l-109.56,10.09z" fill="#2f2e41" id="svg_20"/>
  <polygon fill="#18a34d" id="svg_21" points="466.63885498046875,88.97512817382812 424.83416748046875,104.83209228515625 429.15875244140625,116.36443328857422 394.561767578125,142.31219482421875 417.62646484375,223.03854370117188 404.652587890625,295.11566162109375 442.1326904296875,293.6741027832031 522.8590087890625,286.4664001464844 514.2097778320312,198.53233337402344 515.6513061523438,113.48135375976562 483.9373779296875,101.94901275634766 466.63885498046875,88.97512817382812 "/>
  <path d="m405.37,140.15l-10.81,2.16s-5.04,3.61 -5.04,16.58s0,21.62 1.44,28.83c0,0 -8.65,23.07 -5.77,28.83c2.88,5.77 38.92,5.77 38.92,5.77l-18.74,-82.17z" fill="#18a34d" id="svg_22"/>
  <path d="m464.95,55.52c0,18.15 -14.71,32.86 -32.86,32.86c-18.15,0 -32.86,-14.71 -32.86,-32.86c0,-18.14 14.71,-32.86 32.86,-32.86s32.86,14.72 32.86,32.86z" fill="#ffb6b6" id="svg_23"/>
  <path d="m452.62,78.41s5.82,-22.37 -0.38,-18.43l-9.63,-0.91l6.08,-16.26s-10.88,-8.16 -15.22,-3.39c-4.34,4.77 -3.3,7.46 -7.24,1.26s-12.18,-6.09 -19.73,-1.63c-7.55,4.47 -13.45,5.2 -12.01,-3.08c1.43,-8.28 0.63,-22.36 5.11,-20.76c4.48,1.6 3.25,2.5 5.67,-3.29s2.72,-8.99 8.31,-6.52s19.65,-9.14 25.46,-2.11c5.81,7.03 10.88,8.16 15.95,9.29s25.46,-2.12 23.75,29.45c0,0 13.61,27.2 -10.9,39.77c0,0 -6.65,-6.57 -11.29,1.41l-3.93,-4.8z" fill="#2f2e41" id="svg_24"/>
  <path d="m137.15,149l-32,1l-17,21l-19,4s-6,56 3,76s5,26 5,26l72,-1s-2,-13.58 10,-25.29l6.02,-22.27c3.22,-11.91 2.12,-24.57 -3.09,-35.75l-12.93,-27.69l-11,-4l-1,-12z" fill="#2f2e41" id="svg_25"/>
  <path d="m77.15,289l-4.5,7.5s-14,19 -16,73s14.5,228.74 14.5,228.74l22.84,0l24.68,-236.41l32.98,236.67l29.5,0.5l-2.5,-241.5s-6,-55 -22,-67c0,0 -51.5,46.5 -79.5,-1.5z" fill="#2f2e41" id="svg_26"/>
  <g id="svg_27">
   <path d="m35.51,170.53c0,10.38 -0.63,18.11 -11.97,18.8c-10.64,0.65 -11.96,-8.42 -11.96,-18.8s0.25,-18.71 11.96,-18.79c13.34,-0.1 11.97,8.41 11.97,18.79z" fill="#18a34d" id="svg_28"/>
   <path d="m102.15,170.53c0,10.38 2.73,18.11 -11.96,18.8c-11.3,0.53 -11.96,-8.42 -11.96,-18.8s1.66,-17.63 11.96,-18.79c9.69,-1.1 11.96,8.41 11.96,18.79z" fill="#18a34d" id="svg_29"/>
   <rect fill="#18a34d" height="15.38" id="svg_30" width="66.65" x="25.25" y="161.99"/>
  </g>
  <g id="svg_31">
   <path d="m150.51,167.53c0,10.38 -0.63,18.11 -11.97,18.8c-10.64,0.65 -11.96,-8.42 -11.96,-18.8s0.25,-18.71 11.96,-18.79c13.34,-0.1 11.97,8.41 11.97,18.79z" fill="#18a34d" id="svg_32"/>
   <path d="m217.15,167.53c0,10.38 2.73,18.11 -11.96,18.8c-11.3,0.53 -11.96,-8.42 -11.96,-18.8s1.66,-17.63 11.96,-18.79c9.69,-1.1 11.96,8.41 11.96,18.79z" fill="#18a34d" id="svg_33"/>
   <rect fill="#18a34d" height="15.38" id="svg_34" width="66.65" x="140.25" y="158.99"/>
  </g>
  <g id="svg_35">
   <path d="m324.51,331.53c0,10.38 -0.63,18.11 -11.97,18.8c-10.64,0.65 -11.96,-8.42 -11.96,-18.8s0.25,-18.71 11.96,-18.79c13.34,-0.1 11.97,8.41 11.97,18.79z" fill="#18a34d" id="svg_36"/>
   <path d="m391.15,331.53c0,10.38 2.73,18.11 -11.96,18.8c-11.3,0.53 -11.96,-8.42 -11.96,-18.8s1.66,-17.63 11.96,-18.79c9.69,-1.1 11.96,8.41 11.96,18.79z" fill="#18a34d" id="svg_37"/>
   <rect fill="#18a34d" height="15.38" id="svg_38" width="66.65" x="314.25" y="322.99"/>
  </g>
  <ellipse cx="174.09" cy="170.12" fill="#ffb6b6" id="svg_39" rx="12.99" ry="21.04"/>
  <circle cx="112.65" cy="101.5" fill="#ffb6b6" id="svg_40" r="35.5"/>
  <path d="m105.53,112.65l8.21,-13.07l3.7,-17.77s37.42,9.12 27.38,-9.13c-10.04,-18.25 -35.59,-22.81 -52.93,-9.13l-7.48,7.31s16.6,-15.52 6.56,-20.99c-10.04,-5.48 -8.21,-9.13 -13.69,-4.57c-5.47,4.57 -2.73,8.22 -9.12,5.48c-6.39,-2.74 -20.08,-6.39 -18.26,-1.83s-11.94,16.43 -6.88,21.91s0.5,16.42 9.62,13.68c9.13,-2.73 4.57,10.96 12.78,5.48c0,0 -6.74,8.59 -1.27,14.98s13.92,8.87 13,18s21,11 21,11l-1.7,-26.64s5.43,-4.45 9.08,5.29z" fill="#2f2e41" id="svg_41"/>
  <g id="svg_42">
   <path d="m466.95,173.91s-5.23,17.72 -3.54,29.84l-59.16,78.39l16.78,16.05l72.58,-69.84l13.78,-37.47l-40.44,-16.97z" fill="#ffb6b6" id="svg_43"/>
   <path d="m389.68,320.58c-6.67,-5.04 -5.47,-17.87 2.68,-28.68c8.16,-10.81 20.17,-15.48 26.84,-10.44c6.67,5.04 5.47,17.87 -2.68,28.68c-8.16,10.81 -20.17,15.48 -26.84,10.44z" fill="#ffb6b6" id="svg_44"/>
  </g>
  <path d="m509.83,108.75s18.43,6.68 16.08,19.36c-2.34,12.68 -3.23,21.04 -3.23,21.04c0,0 2,6.92 -0.61,10.37s-15.98,43.93 -15.98,43.93l-48.11,-16.44s28.21,-78.05 51.85,-78.26z" fill="#18a34d" id="svg_45"/>
  <path d="m72.6,171.07c0,11.62 -5.81,21.04 -12.99,21.04c-7.18,0 -12.99,-9.42 -12.99,-21.04c0,-11.62 5.81,-21.03 12.99,-21.03s12.99,9.41 12.99,21.03z" fill="#ffb6b6" id="svg_47"/>
 </g>
</svg>